#!OML:ASF E:/inclinewalkrobotboard/Project1/Captureday1/Session1/subject1.ASF
:FULLY-SPECIFIED
:DEGREES
126
root 0 0 0 1.3139444213984444 -3.853943884064008 1.8326509812060618
lowerback 12.169265261922428 0.8577044580120938 -0.059848643833010695
upperback -4.386091003775313 1.0950391746275674 -0.5683881051074583
thorax -11.618859469842864 0.4975417450851767 -0.8203297509972236
lowerneck -6.010281852014279 1.5941624389011213 4.463803696863009
upperneck 18.388506767771844 3.0994151032142403 -8.197260122657001
head 6.743641257234067 1.1344633704355305 -3.1432217500586903
rclavicle 1.9323087799631557E-15 -4.034698065122899E-16
rhumerus 21.253290872292638 15.771827165213589 -47.637679388155846
rradius 73.64701252666175
rwrist 26.822783176951972
rhand -34.66051931438863 -57.663686026569536
rfingers 7.125020000000014
rthumb -7.801416751162579 -87.60788251616209
lclavicle -4.3601685026875023E-16 -1.0194948308588737E-15
lhumerus 22.124257928092618 -12.529093311161326 43.86414412937248
lradius 71.11751863900858
lwrist -23.56065359658473
lhand -44.62161755613576 -71.13285282700595
lfingers 7.125020000000031
lthumb -17.401129472527884 -41.834848349836236
rfemur -25.231271268864432 -2.2181496894965127 17.200789740953837
rtibia 54.196368624723206
rfoot -29.699051541485524 -16.767250418236053
rtoes -18.432702871450783
lfemur -26.488855374680014 2.2908811511848257 -17.627694459054265
ltibia 53.32996307288365
lfoot -32.60034268109972 -2.612926351160848
ltoes -21.017222273673802
127
root 0 0 0 1.3138921462346467 -3.8536595253953414 1.8326517256863908
lowerback 12.169264309410853 0.8576628839365524 -0.05989406368079009
upperback -4.38615899469442 1.0949758260649851 -0.5683984342409666
thorax -11.618940039184952 0.4975100542780325 -0.8203019203444006
lowerneck -6.010459519379357 1.594260233157285 4.463852726591595
upperneck 18.388731842389134 3.0995363088970365 -8.197305214776987
head 6.743737396734902 1.1345127264794739 -3.1432287922237734
rclavicle 1.932263060157814E-15 -4.032747059290509E-16
rhumerus 21.253152606174922 15.771655446378103 -47.63770407720426
rradius 73.6469220585286
rwrist 26.82277855543855
rhand -34.66062681918846 -57.663740827866825
rfingers 7.125020000000014
rthumb -7.801514678149356 -87.6078982550342
lclavicle -4.3762282936062797E-16 -1.020235939050687E-15
lhumerus 22.124550470378082 -12.529296844921758 43.863987601092006
lradius 71.11785819556013
lwrist -23.56072948921411
lhand -44.621629066690176 -71.13318979083081
lfingers 7.125020000000031
lthumb -17.401134758807167 -41.83515673826908
rfemur -25.231158181159024 -2.218100979200579 17.200891016466656
rtibia 54.19627722421693
rfoot -29.69885083198455 -16.767175321342776
rtoes -18.433126215077614
lfemur -26.488818164529217 2.2907877200762963 -17.627581504177222
ltibia 53.329889358329346
lfoot -32.60035648044807 -2.613474812481038
ltoes -21.018517818919793
128
root 0 0 0 1.3138394245983287 -3.853445671126316 1.8326083086956144
lowerback 12.169246732110139 0.8576415818592728 -0.059879320658642876
upperback -4.386189122732684 1.0949501090780447 -0.5683938922525987
thorax -11.618966630219372 0.49749629614258445 -0.8203039065289937
lowerneck -6.010520240443956 1.5942990257604694 4.463896476931498
upperneck 18.388837534632792 3.0995837145637877 -8.197340869495669
head 6.743778761262741 1.1345315765096573 -3.143243112987796
rclavicle 1.9321082114393312E-15 -4.0314512701105764E-16
rhumerus 21.253177334489095 15.771622398686711 -47.63761509206222
rradius 73.64695849764372
rwrist 26.82283256854705
rhand -34.66074561126684 -57.663928941445974
rfingers 7.125020000000014
rthumb -7.801629207081751 -87.60808839680125
lclavicle -4.3726600615609285E-16 -1.019576114492711E-15
lhumerus 22.124606257213173 -12.529346822168359 43.86398702846108
lradius 71.11791540225495
lwrist -23.56070552279037
lhand -44.62165395256597 -71.13327789841358
lfingers 7.125020000000031
lthumb -17.401163048022333 -41.835266030140644
rfemur -25.23111660246311 -2.2180285500352346 17.20090707784488
rtibia 54.19605760561025
rfoot -29.69890169874069 -16.767221708455807
rtoes -18.43312284982006
lfemur -26.488416096423986 2.2908342077690174 -17.62732863809902
ltibia 53.33003810330423
lfoot -32.59968714248799 -2.6140638702442622
ltoes -21.019928628460097
129
root 0 0 0 1.314142486558191 -3.856188178988801 1.8327018735102882
lowerback 12.169146913937045 0.8578798116169339 -0.059832784977980724
upperback -4.385672157082391 1.0952753738731213 -0.5682184386787338
thorax -11.618315941480116 0.49766920928041747 -0.8201788328797133
lowerneck -6.009189565953284 1.593710458078036 4.46339167505624
upperneck 18.387356974433775 3.098894767470223 -8.196955984846541
head 6.743132741411197 1.1342530939552513 -3.1431111025081977
rclavicle 1.9274310040894877E-15 -3.9556826312674294E-16
rhumerus 21.25304725858772 15.771897469971725 -47.63761276658362
rradius 73.64606191437214
rwrist 26.822988093422406
rhand -34.65878713327889 -57.66306014485087
rfingers 7.125020000000014
rthumb -7.799674123071526 -87.60686277171885
lclavicle -4.3648232245421335E-16 -1.023992362531214E-15
lhumerus 22.123973916442033 -12.528019229549706 43.86210333182393
lradius 71.116721576021
lwrist -23.562475679460235
lhand -44.62153277961818 -71.13318547423901
lfingers 7.125020000000031
lthumb -17.40112532454722 -41.834200660921255
rfemur -25.22586291240618 -2.2179025354502073 17.20321835301105
rtibia 54.199937082525665
rfoot -29.698245219679997 -16.770031252140463
rtoes -18.423603641394998
lfemur -26.48506611857139 2.2918297483493015 -17.628124716784534
ltibia 53.33382878586066
lfoot -32.593965868105364 -2.6156627979804257
ltoes -21.015287157021916
